<svg width="200" height="50" viewBox="0 0 200 50" fill="none" xmlns="http://www.w3.org/2000/svg">
<g clip-path="url(#clip0)">
<path d="M24.0595 23.155L25.2359 21.4825L30.9261 13.3968C31.5341 12.5325 32.1421 11.6715 32.7435 10.8039C32.7879 10.7335 32.8508 10.6766 32.9254 10.6393C33 10.6021 33.0834 10.586 33.1665 10.5928H46.5163C46.8104 10.5928 46.9029 10.6785 46.9029 10.9722V19.424C46.9029 19.7209 46.817 19.7967 46.513 19.7967H44.0116V40.3225C44.0876 40.3225 44.1702 40.3225 44.2495 40.3225H46.5263C46.8137 40.3225 46.8997 40.4083 46.8997 40.692V49.1438C46.8997 49.4473 46.8203 49.5265 46.5229 49.5265H34.9575C34.627 49.5265 34.551 49.4506 34.551 49.1108V39.5011H34.3164C31.3468 39.5011 28.3729 39.5011 25.3945 39.5011C25.2563 39.5113 25.1181 39.483 24.995 39.4196C24.8719 39.3561 24.7689 39.2599 24.6972 39.1415C24.4164 38.7159 24.1124 38.3069 23.8051 37.8747C23.4746 38.3531 23.1442 38.8116 22.8137 39.2735L17.8571 46.31C17.1434 47.3217 16.4318 48.3333 15.7224 49.345C15.681 49.41 15.6232 49.4628 15.5547 49.4982C15.4862 49.5335 15.4095 49.5501 15.3325 49.5463H6.10988C5.97109 49.5463 5.83563 49.5463 5.75302 49.4011C5.6704 49.256 5.75301 49.1438 5.8257 49.0283C7.85021 46.1539 9.87362 43.2783 11.8959 40.4017C14.1429 37.2127 16.3888 34.0238 18.6336 30.8349C18.6601 30.7986 18.6832 30.759 18.7162 30.7095L12.7683 22.3105H12.722C12.722 22.3666 12.722 22.4259 12.722 22.482V36.7564C12.722 37.4723 12.722 38.1914 12.722 38.9106C12.7318 38.9935 12.7225 39.0776 12.6948 39.1564C12.6671 39.2352 12.6216 39.3066 12.562 39.3652C12.5024 39.4238 12.4301 39.468 12.3508 39.4944C12.2714 39.5208 12.187 39.5287 12.1041 39.5176H0.604703C0.520297 39.5305 0.43404 39.5237 0.352717 39.4977C0.271394 39.4717 0.197244 39.4272 0.136066 39.3677C0.074889 39.3082 0.0283659 39.2354 0.000170399 39.1549C-0.0280251 39.0745 -0.0371141 38.9886 -0.0264118 38.904C-0.0264118 35.9878 -0.0264118 33.0737 -0.0264118 30.1619C-0.0376785 30.0771 -0.0290247 29.9908 -0.00108005 29.9099C0.0268646 29.829 0.0733246 29.7557 0.134574 29.6958C0.195823 29.6359 0.270182 29.5911 0.351789 29.565C0.433397 29.5388 0.519987 29.5319 0.604703 29.545H2.71954V9.97589H0.624549C0.171844 9.97589 -0.0363347 9.77795 -0.0363347 9.31611C-0.0363347 6.41967 -0.0363347 3.52432 -0.0363347 0.630085C-0.0493529 0.541412 -0.0410423 0.450924 -0.0120518 0.366106C0.0169388 0.281288 0.0657816 0.204589 0.130379 0.142357C0.194976 0.0801246 0.273475 0.0341514 0.359413 0.00824817C0.445351 -0.0176551 0.536249 -0.0227474 0.624549 -0.00660133H12.0644C12.5172 -0.00660133 12.7253 0.194632 12.7253 0.65318V17.2269C12.7881 17.1576 12.8212 17.1279 12.8476 17.0916C14.7311 14.4107 16.6135 11.7298 18.4948 9.0489C20.5414 6.13486 22.5879 3.22083 24.6345 0.306799C24.6984 0.205362 24.7887 0.123207 24.8958 0.0691563C25.0029 0.0151056 25.1228 -0.00880736 25.2425 -7.14511e-06H34.3494C34.4631 -0.0130323 34.5782 0.00792128 34.6799 0.0601862C34.7817 0.112451 34.8656 0.193682 34.9211 0.2936C34.9749 0.399458 34.9954 0.519028 34.9801 0.636719C34.9648 0.754411 34.9143 0.864762 34.8352 0.953381C32.8261 3.81243 30.8192 6.67148 28.8145 9.53053L22.2222 18.9423C22.057 19.1765 21.8918 19.4042 21.7332 19.645C21.7164 19.6776 21.7076 19.7138 21.7076 19.7505C21.7076 19.7873 21.7164 19.8235 21.7332 19.8561C22.4888 20.9557 23.2499 22.0433 24.0166 23.1187C24.0166 23.1187 24.0232 23.1253 24.0595 23.155ZM34.551 22.6503C34.5064 22.6962 34.4644 22.7446 34.4255 22.7954L29.1846 30.2411C29.1521 30.2754 29.134 30.3208 29.134 30.3681C29.134 30.4153 29.1521 30.4608 29.1846 30.4951C30.947 32.9934 32.7028 35.4929 34.4519 37.9935C34.4715 38.0263 34.486 38.0619 34.4949 38.099L34.5477 38.0529L34.551 22.6503Z" fill="white"/>
<path d="M62.394 39.4945V10.5532H68.342V21.7695H71.1607L75.9257 10.5532H82.399L76.451 24.3888L82.6468 39.4945H76.0843L71.1607 27.2457H68.342V39.4945H62.394Z" fill="white"/>
<path d="M86.817 39.4945V10.5532H104.687V15.6434H92.6559V22.1456H103.299V27.2226H92.6559V34.4373H104.687V39.4945H86.817Z" fill="white"/>
<path d="M109.852 39.4945V10.5532H116.791L124.296 32.9528C124.216 31.9763 124.124 30.847 124.018 29.5648C123.912 28.2826 123.827 27.0004 123.76 25.7183C123.694 24.4383 123.661 23.3475 123.661 22.4458V10.5532H128.905V39.4945H121.966L114.541 17.0949C114.62 17.9439 114.7 18.9478 114.779 20.1068C114.858 21.2714 114.931 22.4457 114.997 23.6367C115.063 24.8276 115.096 25.8832 115.096 26.8102V39.4945H109.852Z" fill="white"/>
<path d="M134.275 39.4945V33.9457L144.919 16.1053H134.592V10.5532H151.709V16.1053L141.026 33.9457H152.145V39.4945H134.275Z" fill="white"/>
<path d="M158.302 39.4945V34.3416H164.061V15.7061H158.302V10.5532H175.775V15.7061H170.016V34.3416H175.775V39.4945H158.302Z" fill="white"/>
<path d="M182.13 39.4945V10.5532H200V15.6434H187.965V22.1456H198.609V27.2226H187.965V34.4373H200V39.4945H182.13Z" fill="white"/>
</g>
<defs>
<clipPath id="clip0">
<rect width="200" height="49.5495" fill="white"/>
</clipPath>
</defs>
</svg>
